<svg width="120" height="80" viewBox="0 0 120 80" fill="none" xmlns="http://www.w3.org/2000/svg">
<rect x="0.5" y="0.5" width="119" height="79" rx="7.5" fill="white"/>
<path d="M66.0397 41.475C65.8422 41.4644 65.6867 41.2992 65.6841 41.0973V30.5665C65.7053 30.3665 65.873 30.2166 66.0699 30.2215H67.9332C68.1029 30.2271 68.2482 30.3473 68.2888 30.5156V32.1261H68.3279C68.8897 30.6863 69.6774 30 71.0641 30C71.9638 30 72.8421 30.3323 73.4092 31.2401C73.9337 32.0826 73.9337 33.5006 73.9337 34.5192V41.1445C73.9044 41.3378 73.7394 41.479 73.5479 41.475H71.5282C71.347 41.467 71.1973 41.3279 71.1726 41.1445V35.427C71.1726 35.3374 71.1734 35.2447 71.1742 35.1497C71.1839 34.0239 71.1962 32.5909 69.9156 32.5909C69.4 32.6153 68.9457 32.9445 68.7528 33.4334C68.4719 34.0761 68.4346 34.7189 68.4346 35.4306V41.0973C68.4269 41.311 68.2528 41.479 68.0434 41.475H66.0397Z" fill="#232F3E"/>
<path fill-rule="evenodd" clip-rule="evenodd" d="M59.5609 30.0145C62.5425 30.0145 64.1551 32.6291 64.1551 35.9517C64.1551 39.1636 62.3771 41.711 59.5609 41.711C56.6362 41.711 55.0432 39.0964 55.0432 35.841C55.0432 32.5855 56.6558 30.0145 59.5609 30.0145ZM59.5805 32.1643C58.0994 32.1643 58.0052 34.2232 58.0052 35.5087L58.0052 35.5513C58.005 36.8538 58.0046 39.5394 59.5609 39.5394C61.1344 39.5394 61.193 37.3243 61.193 35.9735C61.193 35.0875 61.1557 34.0235 60.8926 33.1828C60.6668 32.4566 60.217 32.1643 59.5805 32.1643Z" fill="#232F3E"/>
<path d="M20.4375 41.4968C20.2512 41.4868 20.1001 41.3394 20.0819 41.1499V30.6191C20.0886 30.4081 20.2592 30.2412 20.4659 30.2433H22.3381C22.5299 30.2541 22.6831 30.4105 22.6936 30.6064V31.9809H22.731C23.2181 30.65 24.1373 30.0309 25.3748 30.0309C26.6122 30.0309 27.4176 30.65 27.9812 31.9809C28.3575 30.9567 29.2454 30.2193 30.3039 30.0518C31.3625 29.8844 32.4272 30.3129 33.0892 31.1729C33.6354 31.931 33.6179 32.9869 33.6015 33.9789C33.5987 34.1463 33.5959 34.3118 33.5959 34.4738V41.1172C33.5941 41.2201 33.5521 41.318 33.4794 41.3892C33.4066 41.4605 33.3091 41.4991 33.2084 41.4968H31.2011C31.0036 41.4862 30.848 41.321 30.8455 41.1191V35.5377C30.8455 35.4534 30.8468 35.3449 30.8484 35.2217V35.2207C30.8549 34.6968 30.8648 33.9067 30.7886 33.5659C30.6392 32.8578 30.1894 32.6581 29.608 32.6581C29.0751 32.6747 28.6032 33.0139 28.4079 33.5205C28.2164 34.0162 28.2181 34.8139 28.2193 35.4051L28.2195 35.5377V41.1172C28.2176 41.2198 28.1759 41.3174 28.1035 41.3886C28.0312 41.4598 27.9341 41.4987 27.8337 41.4968H25.821C25.624 41.4853 25.4689 41.3206 25.4654 41.1191V35.5377C25.4654 35.4237 25.4671 35.3043 25.4689 35.1819C25.4849 34.0434 25.5048 32.6327 24.2209 32.6327C22.8321 32.6327 22.8332 34.2372 22.8341 35.4504L22.8341 41.1172C22.8322 41.2201 22.7903 41.318 22.7175 41.3892C22.6448 41.4605 22.5473 41.4991 22.4465 41.4968H20.4375Z" fill="#232F3E"/>
<path fill-rule="evenodd" clip-rule="evenodd" d="M16.4691 41.6256C16.6216 41.7133 16.8116 41.6937 16.9438 41.5766L16.9598 41.5802C17.3598 41.2153 18.0888 40.5689 18.4995 40.2185C18.656 40.0823 18.6275 39.8554 18.4995 39.6738C18.4604 39.6189 18.4211 39.565 18.382 39.5115C18.0528 39.0608 17.7403 38.6329 17.7403 37.7728V34.5791C17.7403 34.4759 17.7408 34.3734 17.7413 34.2716C17.7474 33.0383 17.753 31.9097 16.8514 31.0476C16.0833 30.2923 14.8067 30.0272 13.8289 30.0272C11.9176 30.0272 9.78407 30.7553 9.33781 33.1665C9.3193 33.2641 9.34078 33.3651 9.39723 33.4461C9.45367 33.5271 9.54015 33.5809 9.6365 33.595L11.5673 33.8111C11.7559 33.7819 11.9017 33.627 11.9229 33.4334C12.0901 32.6036 12.7728 32.2024 13.5391 32.2024C13.9551 32.2024 14.4209 32.3567 14.6663 32.7344C14.9181 33.1136 14.9142 33.6168 14.9107 34.0688C14.9103 34.121 14.9099 34.1727 14.9099 34.2232V34.4883C14.7273 34.5094 14.536 34.5293 14.3389 34.5498C13.2788 34.6604 12.0525 34.7882 11.1335 35.2C9.88897 35.7556 9 36.8868 9 38.5517C9 40.6833 10.3157 41.7491 12.0065 41.7491C13.4342 41.7491 14.2147 41.4059 15.3188 40.2584C15.372 40.3376 15.42 40.4107 15.4653 40.4798C15.7287 40.881 15.9002 41.1423 16.4691 41.6256ZM14.9188 36.6757L14.9187 36.1351C13.4662 36.1351 11.9318 36.4528 11.9318 38.1995C11.9318 39.0892 12.3816 39.6883 13.1515 39.6883C13.7169 39.6883 14.2236 39.3325 14.5436 38.7551C14.9201 38.0713 14.9195 37.4309 14.9188 36.6757Z" fill="#232F3E"/>
<path fill-rule="evenodd" clip-rule="evenodd" d="M44.8236 39.6665C44.7845 39.6115 44.7451 39.5576 44.7059 39.504C44.3768 39.0534 44.0644 38.6257 44.0644 37.7674V34.5718C44.0644 34.4632 44.065 34.3553 44.0656 34.2483L44.0657 34.2448C44.0726 33.0178 44.079 31.898 43.1755 31.0404C42.4056 30.2851 41.129 30.02 40.153 30.02C38.2417 30.02 36.1082 30.7462 35.6601 33.1592C35.6411 33.2574 35.6625 33.3592 35.7194 33.4406C35.7763 33.5221 35.8635 33.5759 35.9606 33.5895L37.9074 33.8038C38.0957 33.774 38.2413 33.6194 38.263 33.4261C38.4319 32.5964 39.1111 32.1951 39.8774 32.1951C40.2916 32.1951 40.7663 32.3513 41.0046 32.7289C41.2581 33.1067 41.2542 33.6101 41.2507 34.0623C41.2503 34.1143 41.2499 34.1656 41.2499 34.2159V34.4756C41.0712 34.4959 40.884 34.5152 40.6912 34.5351C39.628 34.6448 38.3946 34.7721 37.4736 35.1855C36.2148 35.7411 35.3312 36.8722 35.3312 38.539C35.3312 40.6688 36.6469 41.7346 38.3377 41.7346C39.76 41.7346 40.5459 41.3914 41.6482 40.2439C41.7006 40.3219 41.748 40.3939 41.7926 40.4618C42.0598 40.8682 42.229 41.1257 42.8003 41.6111C42.9527 41.6982 43.142 41.6794 43.275 41.5639C43.675 41.2008 44.404 40.5526 44.8147 40.2021C44.9872 40.0769 44.9587 39.8554 44.8236 39.6665ZM40.8766 38.746C40.5583 39.3216 40.0498 39.6774 39.4862 39.6774C38.7164 39.6774 38.2666 39.0783 38.2666 38.1904C38.2666 36.4419 39.8009 36.126 41.2535 36.126L41.2535 36.6504C41.254 37.4151 41.2544 38.0585 40.8766 38.746Z" fill="#232F3E"/>
<path d="M46.5233 32.0826V30.5828C46.5186 30.4802 46.5568 30.3803 46.6283 30.3079C46.6998 30.2356 46.798 30.1976 46.8985 30.2034H53.4999C53.6003 30.1999 53.6977 30.2384 53.7695 30.3101C53.8414 30.3818 53.8814 30.4803 53.8804 30.5828V31.8738C53.8804 32.0898 53.7026 32.3731 53.3844 32.8197L49.9636 37.8055C51.2331 37.7746 52.5754 37.9689 53.7293 38.6316C53.9424 38.7477 54.0781 38.9715 54.0849 39.2181V40.8304C54.0849 41.0519 53.8484 41.3079 53.5977 41.1753C51.4079 40.0259 48.8086 40.0307 46.6229 41.1881C46.3935 41.3133 46.1535 41.061 46.1535 40.8394V39.3052C46.1325 38.9436 46.218 38.5838 46.3989 38.2721L50.3619 32.462H46.9056C46.8049 32.466 46.707 32.4277 46.6348 32.356C46.5626 32.2843 46.5223 32.1854 46.5233 32.0826Z" fill="#232F3E"/>
<path fill-rule="evenodd" clip-rule="evenodd" d="M81.4153 31.5415C81.9198 31.0871 82.4964 30.7236 83.1203 30.4666C83.7097 30.2267 84.3384 30.1035 84.9729 30.1035C85.6036 30.0915 86.2292 30.2204 86.806 30.4811C87.3495 30.7356 87.8256 31.1191 88.1945 31.5996C88.5963 32.1319 88.8933 32.7386 89.0693 33.3862C89.2825 34.1537 89.3855 34.9488 89.3751 35.7465C89.3848 36.5613 89.2745 37.3728 89.0479 38.1541C88.8583 38.817 88.5476 39.4374 88.1323 39.9825C87.7466 40.478 87.2569 40.8789 86.6993 41.1554C86.1133 41.4331 85.473 41.5704 84.8271 41.5566C83.6201 41.577 82.4517 41.1219 81.5646 40.2857V45.3259C81.5816 45.4445 81.5427 45.5643 81.4597 45.6491C81.3767 45.7338 81.2594 45.7735 81.1432 45.7562H79.8987C79.7826 45.7735 79.6652 45.7338 79.5823 45.6491C79.4993 45.5643 79.4604 45.4445 79.4773 45.3259V30.8534C79.4611 30.7349 79.5003 30.6156 79.5831 30.5311C79.6659 30.4465 79.7827 30.4065 79.8987 30.423H80.825C80.9459 30.4115 81.0661 30.4509 81.1578 30.5322C81.2495 30.6135 81.3046 30.7295 81.3104 30.8534L81.4153 31.5415ZM84.3844 31.8211C83.3636 31.8293 82.3732 32.1767 81.5628 32.8106V38.8023C82.4613 39.4922 83.3876 39.8366 84.3418 39.8354C86.2785 39.8354 87.2469 38.5039 87.2469 35.8409C87.2469 33.178 86.2927 31.8374 84.3844 31.8193V31.8211Z" fill="#232F3E"/>
<path fill-rule="evenodd" clip-rule="evenodd" d="M92.0047 32.3513L92.1629 32.2968C93.1643 31.9818 94.2051 31.8167 95.2529 31.8066C96.0957 31.8078 96.6854 31.9657 97.022 32.2805C97.3586 32.5952 97.5269 33.1399 97.5269 33.9145V35.3271C96.6598 35.0999 95.7694 34.978 94.8742 34.964C93.6392 34.9628 92.6566 35.2745 91.9264 35.8991C91.1963 36.5236 90.8312 37.3588 90.8312 38.4047C90.8336 39.3791 91.1299 40.1568 91.7202 40.7378C92.3105 41.3188 93.1105 41.6093 94.1204 41.6093C94.7448 41.6066 95.3632 41.4834 95.9428 41.2461C96.554 41.0025 97.1199 40.6536 97.6158 40.2149L97.7225 40.9248C97.7278 41.0427 97.7803 41.1532 97.8677 41.2305C97.9551 41.3077 98.0697 41.3449 98.1847 41.3333H99.0915C99.2075 41.3498 99.3243 41.3098 99.4071 41.2253C99.4899 41.1407 99.529 41.0214 99.5129 40.903V33.5569C99.5117 32.3803 99.1952 31.513 98.5634 30.955C97.9317 30.397 96.9491 30.118 95.6156 30.118C94.952 30.118 94.2898 30.1788 93.6368 30.2996C93.0668 30.3926 92.5091 30.5516 91.9744 30.7735C91.8451 30.8182 91.7293 30.8964 91.6384 31.0004C91.5693 31.1283 91.5396 31.2745 91.5531 31.4198V31.9954C91.5531 32.255 91.6491 32.384 91.8269 32.384C91.8875 32.383 91.9475 32.372 92.0047 32.3513ZM96.0797 39.721C95.6148 39.8984 95.1234 39.9924 94.6271 39.9988C94.0795 40 93.6581 39.8535 93.363 39.5594C93.0679 39.2653 92.9203 38.8459 92.9203 38.3012C92.9191 37.0532 93.7127 36.4292 95.3009 36.4292C95.6773 36.43 96.0532 36.4555 96.4264 36.5055C96.7982 36.5533 97.1674 36.6212 97.5322 36.7088V38.904C97.0912 39.2496 96.6014 39.525 96.0797 39.721Z" fill="#232F3E"/>
<path d="M105.048 45.3677C105.545 44.9368 105.985 44.2268 106.365 43.2379L110.998 31.1965C111.075 31.0334 111.125 30.8586 111.146 30.6791C111.146 30.5084 111.048 30.4212 110.851 30.4212H109.672C109.51 30.4054 109.347 30.4429 109.208 30.5284C109.089 30.664 109.003 30.8263 108.957 31.0022L106.113 39.3452L103.163 31.0022C103.117 30.8263 103.031 30.664 102.912 30.5284C102.773 30.4429 102.61 30.4054 102.448 30.4212H101.184C100.989 30.4212 100.891 30.5084 100.891 30.6791C100.911 30.8586 100.96 31.0335 101.037 31.1965L105.094 41.4386L104.694 42.528C104.456 43.2167 104.189 43.69 103.894 43.9478C103.538 44.226 103.096 44.3634 102.649 44.3346C102.459 44.3386 102.269 44.324 102.082 44.291C101.978 44.2682 101.872 44.2542 101.766 44.2492C101.554 44.2492 101.449 44.3854 101.449 44.6578V45.217C101.437 45.3711 101.474 45.525 101.554 45.6564C101.641 45.7607 101.76 45.8328 101.892 45.8615C102.283 45.9671 102.687 46.0177 103.092 46.0122C103.898 46.0134 104.55 45.7986 105.048 45.3677Z" fill="#232F3E"/>
<path fill-rule="evenodd" clip-rule="evenodd" d="M49.8249 48.1928C50.2819 47.0326 51.2988 44.4326 50.8152 43.8025H50.8188C50.3373 43.1712 47.6348 43.5025 46.4192 43.6515L46.4166 43.6518C46.0468 43.6972 45.9899 43.3686 46.3224 43.1308C48.4808 41.582 52.0171 42.025 52.4278 42.5479C52.8385 43.0708 52.3158 46.6912 50.2943 48.4197C49.9832 48.6848 49.6863 48.5432 49.8249 48.1928ZM35.301 49.983C40.0018 49.983 45.4761 48.467 49.2471 45.6255V45.6309C49.8712 45.1516 49.336 44.4471 48.6995 44.7231C44.5833 46.4961 40.1648 47.4217 35.6975 47.4466C29.4996 47.4466 23.5044 45.7108 18.6542 42.8294C18.2293 42.577 17.9128 43.0218 18.2684 43.3468C22.9378 47.6491 29.012 50.0158 35.301 49.983Z" fill="#FF9900"/>
<rect x="0.5" y="0.5" width="119" height="79" rx="7.5" stroke="#CCCCCC"/>
</svg>
