<svg width="120" height="80" viewBox="0 0 120 80" fill="none" xmlns="http://www.w3.org/2000/svg">
<rect x="0.5" y="0.5" width="119" height="79" rx="7.5" fill="white"/>
<path fill-rule="evenodd" clip-rule="evenodd" d="M29.1763 29.4561C30.7463 29.5885 32.3162 28.6615 33.2974 27.4861C34.2623 26.2777 34.9 24.6554 34.7365 23C33.3465 23.0662 31.6293 23.927 30.6481 25.1355C29.7487 26.1784 28.9801 27.8669 29.1763 29.4561ZM47.8521 50.7777V24.9699H57.4189C62.3576 24.9699 65.8082 28.4132 65.8082 33.4456C65.8082 38.478 62.2922 41.9544 57.288 41.9544H51.8096V50.7777H47.8521ZM34.72 29.7706C33.337 29.69 32.075 30.1916 31.0556 30.5968C30.3996 30.8575 29.8441 31.0783 29.4215 31.0783C28.9473 31.0783 28.3688 30.8457 27.7194 30.5846C26.8684 30.2424 25.8955 29.8511 24.8752 29.8699C22.5367 29.903 20.3617 31.2439 19.1679 33.3794C16.7148 37.6503 18.5301 43.9739 20.9013 47.4503C22.0624 49.1719 23.4525 51.0591 25.2841 50.9929C26.0899 50.9621 26.6695 50.7131 27.2694 50.4554C27.96 50.1588 28.6774 49.8506 29.7976 49.8506C30.879 49.8506 31.5651 50.1508 32.2237 50.4389C32.8498 50.7128 33.4512 50.9759 34.3439 50.9597C36.2409 50.9266 37.4347 49.2381 38.5958 47.5165C39.8488 45.6687 40.3995 43.8654 40.483 43.5918C40.4878 43.5761 40.4911 43.5655 40.4928 43.5601C40.4908 43.5581 40.4753 43.5509 40.448 43.5382C40.0292 43.3441 36.8276 41.8605 36.7969 37.8821C36.7661 34.5427 39.3363 32.8508 39.7409 32.5845C39.7655 32.5683 39.7821 32.5574 39.7896 32.5517C38.1543 30.1017 35.6031 29.8368 34.72 29.7706ZM73.0366 50.9763C75.5224 50.9763 77.8282 49.7017 78.8749 47.6821H78.9566V50.7777H82.6198V37.9317C82.6198 34.2071 79.6762 31.8067 75.1462 31.8067C70.9434 31.8067 67.8362 34.2402 67.7218 37.5841H71.2868C71.5812 35.9949 73.0366 34.952 75.0318 34.952C77.4521 34.952 78.8094 36.0942 78.8094 38.1966V39.6202L73.8707 39.9182C69.2753 40.1996 66.7896 42.1034 66.7896 45.4142C66.7896 48.7581 69.3571 50.9763 73.0366 50.9763ZM74.0994 47.9138C71.9898 47.9138 70.6488 46.8875 70.6488 45.3149C70.6488 43.6926 71.9407 42.749 74.4101 42.6L78.8092 42.3186V43.7753C78.8092 46.1922 76.7813 47.9138 74.0994 47.9138ZM94.7703 51.7875C93.184 56.3067 91.3688 57.7966 87.5094 57.7966C87.215 57.7966 86.2338 57.7635 86.0048 57.6973V54.6017C86.2501 54.6348 86.8552 54.6679 87.1659 54.6679C88.9158 54.6679 89.897 53.9229 90.502 51.9861L90.8618 50.8439L84.1569 32.0551H88.2943L92.9551 47.3013H93.0368L97.6976 32.0551H101.721L94.7703 51.7875ZM51.8092 28.347H56.3719C59.8061 28.347 61.7685 30.201 61.7685 33.4621C61.7685 36.7233 59.8061 38.5939 56.3555 38.5939H51.8092V28.347Z" fill="black"/>
<rect x="0.5" y="0.5" width="119" height="79" rx="7.5" stroke="#CCCCCC"/>
</svg>
