<svg width="120" height="80" viewBox="0 0 120 80" fill="none" xmlns="http://www.w3.org/2000/svg">
<rect x="0.5" y="0.5" width="119" height="79" rx="7.5" fill="white"/>
<path fill-rule="evenodd" clip-rule="evenodd" d="M56.5107 49.8943V39.8043H61.7183C63.8523 39.8043 65.6534 39.0892 67.1218 37.679L67.4742 37.3215C70.1563 34.4018 69.9801 29.8533 67.1218 27.1521C65.6926 25.722 63.7348 24.9474 61.7183 24.9871H53.3587V49.8943H56.5107ZM56.5111 36.7454V28.0458H61.7979C62.9335 28.0458 64.0105 28.4828 64.8133 29.2773C66.5168 30.9457 66.556 33.7264 64.9112 35.4544C64.1084 36.3085 62.9727 36.7852 61.7979 36.7454H56.5111Z" fill="#3C4043"/>
<path fill-rule="evenodd" clip-rule="evenodd" d="M82.177 34.1833C80.8262 32.932 78.9859 32.2964 76.6561 32.2964C73.6608 32.2964 71.4093 33.4087 69.9214 35.6134L72.7015 37.3811C73.7195 35.8716 75.1095 35.1168 76.8715 35.1168C77.9874 35.1168 79.0642 35.5339 79.906 36.2887C80.7283 37.0037 81.1981 38.0365 81.1981 39.129V39.8639C79.9843 39.1886 78.4573 38.831 76.5778 38.831C74.3851 38.831 72.6231 39.3475 71.3114 40.4001C69.9997 41.4528 69.3341 42.8432 69.3341 44.6109C69.295 46.2198 69.9802 47.7492 71.194 48.782C72.4274 49.8943 73.9936 50.4504 75.8339 50.4504C78.007 50.4504 79.7298 49.4772 81.0415 47.5307H81.1786V49.8943H84.1935V39.3872C84.1935 37.1825 83.5279 35.4346 82.177 34.1833ZM73.6222 46.756C72.976 46.2793 72.5844 45.5047 72.5844 44.6705C72.5844 43.737 73.0152 42.9624 73.8571 42.3466C74.7187 41.7309 75.7956 41.4131 77.0684 41.4131C78.8306 41.3932 80.2013 41.7905 81.1803 42.585C81.1803 43.9356 80.6516 45.1075 79.6139 46.1006C78.674 47.054 77.4013 47.5902 76.0698 47.5902C75.1886 47.6101 74.3271 47.3122 73.6222 46.756Z" fill="#3C4043"/>
<path d="M90.9674 57.3823L101.5 32.8525H98.0741L93.1993 45.0876H93.1405L88.1483 32.8525H84.7222L91.6331 48.8019L87.7175 57.3823H90.9674Z" fill="#3C4043"/>
<path d="M45.6288 37.6194C45.6288 36.6462 45.5505 35.6729 45.3939 34.7195H32.1007V40.2214H39.7164C39.4032 41.9891 38.3851 43.5781 36.8972 44.5712V48.1464H41.4392C44.1018 45.6636 45.6288 41.9891 45.6288 37.6194Z" fill="#4285F4"/>
<path d="M32.1013 51.6024C35.8993 51.6024 39.1095 50.3312 41.4392 48.1464L36.8972 44.5712C35.6247 45.4451 34.0003 45.9417 32.1013 45.9417C28.4207 45.9417 25.3079 43.4192 24.1919 40.0426H19.5129V43.737C21.9014 48.5635 26.7762 51.6024 32.1013 51.6024Z" fill="#34A853"/>
<path d="M24.1919 40.0426C23.6045 38.2749 23.605 36.3483 24.1925 34.5607V30.8862H19.5127C17.4959 34.9182 17.4959 39.6851 19.5127 43.7172L24.1919 40.0426Z" fill="#FBBC04"/>
<path d="M32.1013 28.6616C34.1178 28.6219 36.056 29.3965 37.5047 30.8067L41.5377 26.7151C38.973 24.2919 35.6057 22.9611 32.1013 23.0009C26.7762 23.0009 21.9011 26.0597 19.5127 30.8862L24.1919 34.5805C25.3079 31.1841 28.4207 28.6616 32.1013 28.6616Z" fill="#EA4335"/>
<rect x="0.5" y="0.5" width="119" height="79" rx="7.5" stroke="#CCCCCC"/>
</svg>
