<svg width="120" height="80" viewBox="0 0 120 80" fill="none" xmlns="http://www.w3.org/2000/svg">
<rect x="0.5" y="0.5" width="119" height="79" rx="7.5" fill="white"/>
<path fill-rule="evenodd" clip-rule="evenodd" d="M31.0688 30.0021H25.1907C24.7884 30.0021 24.4463 30.2944 24.3836 30.6913L22.0062 45.7628C21.9589 46.0603 22.1893 46.3283 22.4909 46.3283H25.2972C25.6995 46.3283 26.0416 46.036 26.1043 45.6383L26.7455 41.5734C26.8074 41.1753 27.1503 40.8833 27.5517 40.8833H29.4125C33.2846 40.8833 35.5192 39.0097 36.1031 35.2972C36.366 33.6729 36.1143 32.3967 35.3534 31.5026C34.5181 30.5215 33.036 30.0021 31.0688 30.0021ZM31.7469 35.5067C31.4255 37.6158 29.8139 37.6158 28.2557 37.6158H27.3686L27.9909 33.6769C28.0279 33.4391 28.2341 33.2637 28.4748 33.2637H28.8814C29.9428 33.2637 30.9443 33.2637 31.4617 33.8686C31.77 34.2297 31.8647 34.7658 31.7469 35.5067ZM48.6399 35.4391H45.825C45.5851 35.4391 45.3779 35.6145 45.3409 35.8528L45.2164 36.6398L45.0195 36.3547C44.4102 35.4702 43.0515 35.1747 41.6951 35.1747C38.5843 35.1747 35.9277 37.5303 35.4102 40.8348C35.1414 42.4829 35.5236 44.059 36.4587 45.1583C37.3167 46.1689 38.5441 46.59 40.0043 46.59C42.5105 46.59 43.9007 44.9785 43.9007 44.9785L43.775 45.7608C43.7276 46.0599 43.9579 46.3279 44.2578 46.3279H46.7935C47.1968 46.3279 47.5369 46.0356 47.6006 45.6379L49.122 36.0047C49.1701 35.7084 48.9406 35.4391 48.6399 35.4391ZM44.7161 40.9171C44.4444 42.5251 43.168 43.6045 41.5404 43.6045C40.723 43.6045 40.0695 43.3424 39.6503 42.8456C39.2342 42.3525 39.0759 41.6501 39.2084 40.8682C39.4621 39.2738 40.76 38.1594 42.3629 38.1594C43.162 38.1594 43.812 38.4247 44.2399 38.9258C44.6687 39.4321 44.839 40.1384 44.7161 40.9171ZM60.8028 35.4387H63.6316C64.0277 35.4387 64.2588 35.883 64.0337 36.2079L54.6257 49.7864C54.4733 50.0063 54.2223 50.1372 53.9543 50.1372H51.129C50.7313 50.1372 50.499 49.6894 50.7293 49.3636L53.6587 45.2291L50.5431 36.0866C50.4353 35.7688 50.67 35.4387 51.0081 35.4387H53.7876C54.1488 35.4387 54.4674 35.6758 54.5716 36.0214L56.225 41.5431L60.1266 35.7971C60.2793 35.5728 60.5331 35.4387 60.8028 35.4387Z" fill="#253B80"/>
<path fill-rule="evenodd" clip-rule="evenodd" d="M91.4734 45.7615L93.8858 30.4144C93.9228 30.1762 94.1292 30.0008 94.3691 30H97.0849C97.3848 30 97.6151 30.2688 97.5678 30.5663L95.1889 45.637C95.1268 46.0347 94.7847 46.3271 94.3818 46.3271H91.9563C91.6564 46.3271 91.4261 46.059 91.4734 45.7615ZM72.9982 30.0008H67.1191C66.7177 30.0008 66.3756 30.2931 66.3128 30.69L63.9354 45.7615C63.8881 46.059 64.1184 46.3271 64.4187 46.3271H67.4353C67.7157 46.3271 67.9555 46.1226 67.9993 45.8442L68.6739 41.5721C68.7359 41.174 69.0788 40.8821 69.4801 40.8821H71.34C75.2129 40.8821 77.4471 39.0085 78.0314 35.2959C78.2951 33.6716 78.0417 32.3954 77.2812 31.5013C76.4464 30.5202 74.9655 30.0008 72.9982 30.0008ZM73.6764 35.5055C73.3558 37.6145 71.7441 37.6145 70.1849 37.6145H69.2987L69.922 33.6756C69.959 33.4378 70.1635 33.2624 70.4049 33.2624H70.8114C71.8722 33.2624 72.8745 33.2624 73.3916 33.8673C73.7003 34.2284 73.7941 34.7645 73.6764 35.5055ZM90.5678 35.4378H87.7549C87.513 35.4378 87.3078 35.6132 87.2716 35.8515L87.1471 36.6385L86.9494 36.3534C86.34 35.4689 84.9821 35.1734 83.6258 35.1734C80.515 35.1734 77.8592 37.529 77.3417 40.8335C77.0736 42.4816 77.4543 44.0577 78.3894 45.157C79.2489 46.1676 80.4748 46.5887 81.9349 46.5887C84.4412 46.5887 85.8309 44.9772 85.8309 44.9772L85.7056 45.7595C85.6583 46.0586 85.8886 46.3267 86.1905 46.3267H88.725C89.1263 46.3267 89.4684 46.0343 89.5312 45.6366L91.0534 36.0034C91.1 35.7071 90.8697 35.4378 90.5678 35.4378ZM86.6443 40.9159C86.3743 42.5238 85.0963 43.6032 83.4683 43.6032C82.6525 43.6032 81.9978 43.3411 81.5782 42.8443C81.1621 42.3512 81.0058 41.6488 81.1366 40.8669C81.3916 39.2725 82.6879 38.1582 84.2908 38.1582C85.0903 38.1582 85.7398 38.4234 86.1682 38.9245C86.5986 39.4308 86.7688 40.1371 86.6443 40.9159Z" fill="#179BD7"/>
<rect x="0.5" y="0.5" width="119" height="79" rx="7.5" stroke="#CCCCCC"/>
</svg>
