<svg width="41" height="48" viewBox="0 0 41 48" fill="none" xmlns="http://www.w3.org/2000/svg">
<path d="M39.5839 37.4066C38.858 39.0836 37.9988 40.6272 37.0033 42.0464C35.6463 43.9812 34.5352 45.3204 33.6789 46.0641C32.3515 47.2848 30.9294 47.91 29.4065 47.9455C28.3132 47.9455 26.9947 47.6344 25.4599 47.0033C23.9201 46.3752 22.5051 46.0641 21.2112 46.0641C19.8542 46.0641 18.3988 46.3752 16.8421 47.0033C15.2831 47.6344 14.0271 47.9633 13.0668 47.9959C11.6064 48.0581 10.1508 47.4152 8.69779 46.0641C7.77042 45.2552 6.61045 43.8686 5.22087 41.9042C3.72995 39.8065 2.50422 37.374 1.54395 34.6007C0.515539 31.6053 0 28.7046 0 25.8964C0 22.6796 0.695089 19.9052 2.08734 17.5802C3.18153 15.7127 4.63718 14.2396 6.45905 13.1581C8.28092 12.0767 10.2494 11.5256 12.3694 11.4903C13.5293 11.4903 15.0505 11.8491 16.9408 12.5543C18.8258 13.2618 20.0361 13.6206 20.5667 13.6206C20.9635 13.6206 22.308 13.2011 24.5874 12.3647C26.7428 11.589 28.562 11.2678 30.0524 11.3943C34.0908 11.7202 37.1247 13.3122 39.1424 16.1803C35.5307 18.3686 33.7441 21.4337 33.7797 25.3658C33.8122 28.4285 34.9233 30.9771 37.107 33.0008C38.0965 33.94 39.2017 34.6659 40.4313 35.1815C40.1646 35.9548 39.8832 36.6955 39.5839 37.4066ZM30.322 0.960273C30.322 3.36082 29.445 5.60221 27.6969 7.67681C25.5873 10.1431 23.0357 11.5682 20.2687 11.3434C20.2334 11.0554 20.213 10.7523 20.213 10.4338C20.213 8.12924 21.2162 5.66294 22.9978 3.64641C23.8872 2.62541 25.0185 1.77646 26.3903 1.09923C27.7591 0.43211 29.0539 0.063178 30.2716 0C30.3072 0.320916 30.322 0.641883 30.322 0.960273Z" fill="#555555"/>
</svg>
